<svg width="24" height="25" viewBox="0 0 24 25" fill="none" xmlns="http://www.w3.org/2000/svg">
<path d="M7 9.1101L7.01 9.0991M11 9.1101L11.01 9.0991M7 13.1101L7.01 13.0991M11 13.1101L11.01 13.0991M7 17.1101L7.01 17.0991M11 17.1101L11.01 17.0991M15 21.1001H3.6C3.44087 21.1001 3.28826 21.0369 3.17574 20.9244C3.06321 20.8118 3 20.6592 3 20.5001V5.7001C3 5.54097 3.06321 5.38836 3.17574 5.27583C3.28826 5.16331 3.44087 5.1001 3.6 5.1001H9V3.7001C9 3.54097 9.06321 3.38836 9.17574 3.27583C9.28826 3.16331 9.44087 3.1001 9.6 3.1001H14.4C14.5591 3.1001 14.7117 3.16331 14.8243 3.27583C14.9368 3.38836 15 3.54097 15 3.7001V9.1001M15 21.1001H20.4C20.5591 21.1001 20.7117 21.0369 20.8243 20.9244C20.9368 20.8118 21 20.6592 21 20.5001V9.7001C21 9.54097 20.9368 9.38835 20.8243 9.27583C20.7117 9.16331 20.5591 9.1001 20.4 9.1001H15M15 21.1001V17.1001M15 9.1001V13.1001M15 17.1001V13.1001M15 17.1001H17M15 13.1001H17" stroke="#858F96" stroke-width="1.5" stroke-linecap="round" stroke-linejoin="round"/>
</svg>
